# xmcd
#
# Track frame offsets: 
#        150
#        14780
#        29280
#        45830
#        58065
#        75765
#        94723
#        111930
#        131165
#        151118
#        163768
#        180675
#
# Disc length: 2569 seconds
#
# Revision: 3
# Processed by: cddbd v1.5.2PL0 Copyright (c) Steve Scherf et al.
# Submitted via: ExactAudioCopy v0.99pb5
#
DISCID=8e0a070c
DTITLE=John HAMMOND - Found True Love
DYEAR=1995
DGENRE=Blues
TTITLE0=Found Love
TTITLE1=I Hate To See You Go
TTITLE2=Fore Day Rider Blues
TTITLE3=Warm It Up To Me
TTITLE4=Howlin' For My Darling
TTITLE5=Hello Stranger
TTITLE6=You Had Too Much
TTITLE7=My Mind Is Ramblin'
TTITLE8=The First Time I Met The Blues
TTITLE9=I've Got To Find My Baby
TTITLE10=Evolution Blues
TTITLE11=Someday Baby Blues
EXTD=Produced by John Hammond and Duke Robillard.  Executive Producer,
EXTD=Mike Kappus
EXTT0=Mathis James Reed\nwith Duke Robillard, Marty Ballou, and Jeffre
EXTT0=y McAllister
EXTT1=Marion Jacobs\nwith Duke Robillard, Marty Ballou, and Jeffery Mc
EXTT1=Allister
EXTT2=Leroy Carr\nwith Mr. B
EXTT3=Willie McTell\nwith Soozie Tyrell
EXTT4=Chester Burnett/Willie Dixon\nwith Duke Robillard, Marty Ballou,
EXTT4=Jeffery McAllister
EXTT5=Robert Henry Warren\nwith Charlie Musselwhite, Duke Robillard, M
EXTT5=arty Ballou, Jeffery McAllister
EXTT6=You Had To Much\nwith Soozie Tyrell, Duke Robillard, Mr. B
EXTT7=Chester Burnett/Alex Atkins\nwith Marty Ballou, Jeffery McAllist
EXTT7=er
EXTT8=Eurreal Montgomery\nwith Duke Robillard, Mr. B, Marty Ballou, Ne
EXTT8=il Gouvin
EXTT9=Marion Jacobs\nDuke Robillard, Mr. B, Marty Ballou, Jeffery McAl
EXTT9=lister
EXTT10=Sam Price/Pleasant Joseph\nwith Duke Robillard, Mr. B, Marty Ba
EXTT10=llou, Neil Gouvin
EXTT11=John Estes/Hammie Nixon\nwith Charlie Musselwhite
PLAYORDER=
